<svg width="24" height="24" viewBox="0 0 24 24" fill="none" xmlns="http://www.w3.org/2000/svg">
<path d="M6 4H18C19.1046 4 20 4.89543 20 6V20C20 21.1046 19.1046 22 18 22H6C4.89543 22 4 21.1046 4 20V6C4 4.89543 4.89543 4 6 4Z" stroke="#333333" stroke-width="2"/>
<path d="M9 10L12 14L15 10M9 12H15M9 15H15M12 14V18" stroke="#333333" stroke-width="1.5" stroke-linecap="round"/>
<path d="M16 22L22 22L22 16L19 19A4 4 0 0 0 16 16" stroke="#FFCC00" stroke-width="2" stroke-linecap="round" stroke-linejoin="round"/>
</svg>
